<svg width="14" height="15" viewBox="0 0 14 15" fill="none" xmlns="http://www.w3.org/2000/svg">
<path d="M3.17767 5.49485C3.52338 4.84467 3.27655 4.03733 2.62637 3.69163C1.97618 3.34592 1.16885 3.59274 0.823143 4.24293C0.477434 4.89311 0.72426 5.70044 1.37444 6.04615C2.02463 6.39186 2.83196 6.14504 3.17767 5.49485Z" fill="#969696"/>
<path d="M7.72306 2.62635C8.06877 1.97617 7.82195 1.16884 7.17176 0.823129C6.52158 0.47742 5.71425 0.724246 5.36854 1.37443C5.02283 2.02461 5.26965 2.83195 5.91984 3.17766C6.57002 3.52336 7.37735 3.27654 7.72306 2.62635Z" fill="#969696"/>
<path d="M13.0581 3.95294C13.4038 3.30275 13.157 2.49542 12.5068 2.14971C11.8566 1.804 11.0493 2.05083 10.7036 2.70101C10.3578 3.3512 10.6047 4.15853 11.2549 4.50424C11.905 4.84995 12.7124 4.60312 13.0581 3.95294Z" fill="#969696"/>
<path d="M4.90625 7.92403C5.11175 7.53753 5.39137 7.19529 5.72914 6.91685C6.06691 6.63841 6.45622 6.42923 6.87483 6.30125C7.29345 6.17327 7.73317 6.12899 8.16889 6.17095C8.60462 6.2129 9.02781 6.34027 9.41431 6.54577L11.4745 7.64121C11.9668 7.90316 12.349 8.33276 12.5519 8.85219C12.7547 9.37162 12.7649 9.94653 12.5804 10.4728C12.396 10.999 12.0292 11.4419 11.5465 11.721C11.0637 12.0001 10.497 12.0972 9.94885 11.9945C9.00496 11.8148 8.19253 12.0624 7.51155 12.7372C7.11476 13.1286 6.59097 13.3651 6.03496 13.4038C5.47895 13.4425 4.92745 13.2809 4.48026 12.9482C4.03307 12.6155 3.71973 12.1338 3.59693 11.5901C3.47414 11.0465 3.55001 10.4768 3.81081 9.98424L4.90625 7.92403Z" fill="#969696"/>
<path fill-rule="evenodd" clip-rule="evenodd" d="M6.85877 1.41177C6.53368 1.23891 6.13001 1.36232 5.95716 1.68742C5.7843 2.01251 5.90772 2.41617 6.23281 2.58903C6.5579 2.76188 6.96157 2.63847 7.13442 2.31338C7.30728 1.98829 7.18386 1.58462 6.85877 1.41177ZM4.77989 1.06145C5.29846 0.0861768 6.50946 -0.284062 7.48473 0.234502C8.46001 0.753066 8.83025 1.96406 8.31168 2.93934C7.79312 3.91462 6.58212 4.28486 5.60685 3.76629C4.63157 3.24773 4.26133 2.03673 4.77989 1.06145ZM12.1938 2.73835C11.8687 2.56549 11.465 2.68891 11.2922 3.014C11.1193 3.33909 11.2427 3.74276 11.5678 3.91561C11.8929 4.08847 12.2966 3.96505 12.4694 3.63996C12.6423 3.31487 12.5189 2.9112 12.1938 2.73835ZM10.1149 2.38804C10.6335 1.41276 11.8445 1.04252 12.8198 1.56109C13.795 2.07965 14.1653 3.29065 13.6467 4.26592C13.1281 5.2412 11.9171 5.61144 10.9419 5.09288C9.96659 4.57431 9.59635 3.36332 10.1149 2.38804ZM2.31338 4.28026C1.98829 4.10741 1.58462 4.23082 1.41177 4.55591C1.23891 4.881 1.36232 5.28467 1.68742 5.45752C2.01251 5.63038 2.41617 5.50697 2.58903 5.18187C2.76188 4.85678 2.63847 4.45312 2.31338 4.28026ZM0.234502 3.92995C0.753066 2.95467 1.96406 2.58443 2.93934 3.103C3.91462 3.62156 4.28486 4.83256 3.76629 5.80784C3.24773 6.78311 2.03673 7.15335 1.06145 6.63479C0.086177 6.11622 -0.284062 4.90523 0.234502 3.92995ZM8.10498 6.83455C7.75641 6.80098 7.40463 6.83641 7.06974 6.93879C6.73485 7.04118 6.4234 7.20852 6.15319 7.43127C5.88297 7.65402 5.65927 7.92781 5.49487 8.23701L4.39998 10.2962C4.39991 10.2963 4.40005 10.2961 4.39998 10.2962C4.21386 10.6479 4.15953 11.0551 4.24721 11.4433C4.33492 11.8316 4.55873 12.1757 4.87816 12.4133C5.19758 12.6509 5.59151 12.7664 5.98866 12.7387C6.38581 12.7111 6.75995 12.5422 7.04337 12.2626L7.51155 12.7372L7.04227 12.2637C7.8794 11.4341 8.91373 11.1191 10.0723 11.3394C10.4636 11.4125 10.8681 11.3431 11.2127 11.1439C11.5575 10.9445 11.8195 10.6282 11.9513 10.2523C12.083 9.8764 12.0758 9.46575 11.9309 9.09473C11.786 8.72371 11.513 8.41685 11.1613 8.22974L9.10132 7.13441C8.79212 6.97001 8.45356 6.86811 8.10498 6.83455ZM6.67991 5.66372C7.18224 5.51014 7.70991 5.45701 8.23278 5.50735C8.75565 5.5577 9.26348 5.71054 9.72728 5.95715L11.7875 7.05258C12.4204 7.38938 12.912 7.94182 13.1728 8.60966C13.4337 9.2775 13.4467 10.0167 13.2096 10.6933C12.9724 11.3699 12.5008 11.9392 11.8802 12.2981C11.2595 12.657 10.5308 12.7818 9.82611 12.6498L9.82414 12.6494C9.09546 12.5107 8.50536 12.6909 7.98081 13.2107L7.97972 13.2118C7.46956 13.7151 6.79611 14.0191 6.08124 14.0688C5.36637 14.1186 4.6573 13.9108 4.08234 13.4831C3.50738 13.0554 3.10451 12.436 2.94664 11.737C2.78876 11.038 2.88631 10.3056 3.22163 9.67229L4.31761 7.61105C4.56421 7.14725 4.89976 6.73656 5.30508 6.40244C5.71041 6.06832 6.17757 5.8173 6.67991 5.66372Z" fill="#969696"/>
</svg>
