<svg width="18" height="22" viewBox="0 0 18 22" fill="none" xmlns="http://www.w3.org/2000/svg">
<g filter="url(#filter0_d_1489_2219)">
<path fill-rule="evenodd" clip-rule="evenodd" d="M6.67517 2.50834C6.89391 2.28953 7.19061 2.16657 7.5 2.1665H9.83333C10.1428 2.1665 10.4395 2.28942 10.6583 2.50821C10.8771 2.72701 11 3.02375 11 3.33317V4.49984H12.75C12.9047 4.49984 13.0531 4.5613 13.1625 4.67069C13.2719 4.78009 13.3333 4.92846 13.3333 5.08317C13.3333 5.23788 13.2719 5.38625 13.1625 5.49565C13.0531 5.60505 12.9047 5.6665 12.75 5.6665V12.6665C12.75 12.9759 12.6271 13.2727 12.4083 13.4915C12.1895 13.7103 11.8928 13.8332 11.5833 13.8332H5.75C5.44058 13.8332 5.14383 13.7103 4.92504 13.4915C4.70625 13.2727 4.58333 12.9759 4.58333 12.6665V5.6665C4.42862 5.6665 4.28025 5.60505 4.17085 5.49565C4.06146 5.38625 4 5.23788 4 5.08317C4 4.92846 4.06146 4.78009 4.17085 4.67069C4.28025 4.5613 4.42862 4.49984 4.58333 4.49984H6.33333V3.33317C6.3334 3.02378 6.45636 2.72708 6.67517 2.50834ZM7.5 4.49984H9.83333V3.33317H7.5V4.49984ZM8.08333 6.83317C8.08333 6.67846 8.02187 6.53009 7.91248 6.42069C7.80308 6.3113 7.65471 6.24984 7.5 6.24984C7.34529 6.24984 7.19692 6.3113 7.08752 6.42069C6.97812 6.53009 6.91667 6.67846 6.91667 6.83317V11.4998C6.91667 11.6545 6.97812 11.8029 7.08752 11.9123C7.19692 12.0217 7.34529 12.0832 7.5 12.0832C7.65471 12.0832 7.80308 12.0217 7.91248 11.9123C8.02187 11.8029 8.08333 11.6545 8.08333 11.4998V6.83317ZM10.4167 6.83317C10.4167 6.67846 10.3552 6.53009 10.2458 6.42069C10.1364 6.3113 9.98804 6.24984 9.83333 6.24984C9.67862 6.24984 9.53025 6.3113 9.42085 6.42069C9.31146 6.53009 9.25 6.67846 9.25 6.83317V11.4998C9.25 11.6545 9.31146 11.8029 9.42085 11.9123C9.53025 12.0217 9.67862 12.0832 9.83333 12.0832C9.98804 12.0832 10.1364 12.0217 10.2458 11.9123C10.3552 11.8029 10.4167 11.6545 10.4167 11.4998V6.83317Z" fill="white"/>
</g>
<defs>
<filter id="filter0_d_1489_2219" x="-3.33398" y="0" width="24" height="24" filterUnits="userSpaceOnUse" color-interpolation-filters="sRGB">
<feFlood flood-opacity="0" result="BackgroundImageFix"/>
<feColorMatrix in="SourceAlpha" type="matrix" values="0 0 0 0 0 0 0 0 0 0 0 0 0 0 0 0 0 0 127 0" result="hardAlpha"/>
<feOffset dy="4"/>
<feGaussianBlur stdDeviation="2"/>
<feComposite in2="hardAlpha" operator="out"/>
<feColorMatrix type="matrix" values="0 0 0 0 0 0 0 0 0 0 0 0 0 0 0 0 0 0 0.25 0"/>
<feBlend mode="normal" in2="BackgroundImageFix" result="effect1_dropShadow_1489_2219"/>
<feBlend mode="normal" in="SourceGraphic" in2="effect1_dropShadow_1489_2219" result="shape"/>
</filter>
</defs>
</svg>
