<svg width="16" height="16" viewBox="0 0 16 16" fill="none" xmlns="http://www.w3.org/2000/svg">
<path d="M11.0561 3.53287C11.3411 3.3878 11.6784 3.38782 11.9634 3.53287C12.1047 3.6048 12.2368 3.73701 12.5003 4.0005C12.7636 4.26383 12.8949 4.39609 12.9668 4.53733C13.1118 4.82234 13.1119 5.15973 12.9668 5.4447C12.8948 5.58572 12.7632 5.71746 12.5003 5.98041L10.4802 7.99938L12.5003 10.0195C12.7636 10.2829 12.8948 10.4151 12.9668 10.5563C13.1119 10.8414 13.1119 11.1786 12.9668 11.4637C12.8948 11.6049 12.7637 11.7371 12.5003 12.0005C12.2368 12.2639 12.1047 12.3951 11.9634 12.467C11.6784 12.6122 11.3411 12.6122 11.0561 12.467C10.9148 12.3951 10.7826 12.2639 10.5192 12.0005L8.49914 9.98041L6.48017 12.0005C6.21721 12.2635 6.08548 12.395 5.94445 12.467C5.65948 12.6121 5.32209 12.612 5.03709 12.467C4.89584 12.3951 4.76358 12.2638 4.50026 12.0005C4.23677 11.737 4.10456 11.605 4.03262 11.4637C3.88757 11.1787 3.88755 10.8413 4.03262 10.5563C4.10456 10.415 4.23677 10.283 4.50026 10.0195L6.51923 7.99938L4.50026 5.98041C4.23698 5.71713 4.10459 5.58586 4.03262 5.4447C3.88758 5.15981 3.88776 4.82228 4.03262 4.53733C4.10456 4.39604 4.23677 4.26399 4.50026 4.0005C4.76375 3.73701 4.8958 3.6048 5.03709 3.53287C5.32204 3.388 5.65957 3.38782 5.94445 3.53287C6.08562 3.60483 6.21689 3.73722 6.48017 4.0005L8.49914 6.01947L10.5192 4.0005C10.7827 3.73701 10.9148 3.6048 11.0561 3.53287Z" fill="#C7C9CB"/>
</svg>
