<svg width="16" height="16" viewBox="0 0 16 16" fill="none" xmlns="http://www.w3.org/2000/svg">
<path fill-rule="evenodd" clip-rule="evenodd" d="M2.00195 8.00033C2.00195 4.68689 4.68786 2.00098 8.0013 2.00098C11.3147 2.00098 14.0007 4.68689 14.0007 8.00033C14.0007 11.3138 11.3147 13.9997 8.0013 13.9997C4.68786 13.9997 2.00195 11.3138 2.00195 8.00033ZM10.2253 7.22461C10.3345 7.11146 10.395 6.95992 10.3936 6.80262C10.3923 6.64531 10.3292 6.49484 10.218 6.38361C10.1067 6.27238 9.95625 6.20928 9.79895 6.20792C9.64165 6.20655 9.4901 6.26702 9.37695 6.3763L7.40137 8.35189L6.32568 7.2762C6.21253 7.16692 6.06099 7.10645 5.90369 7.10782C5.74639 7.10919 5.59592 7.17228 5.48468 7.28351C5.37345 7.39475 5.31036 7.54522 5.30899 7.70252C5.30762 7.85982 5.36809 8.01136 5.47738 8.12451L6.97721 9.62435C7.08972 9.73682 7.24229 9.8 7.40137 9.8C7.56045 9.8 7.71302 9.73682 7.82552 9.62435L10.2253 7.22461Z" fill="white"/>
</svg>
