<svg width="24" height="24" viewBox="0 0 24 24" fill="none" xmlns="http://www.w3.org/2000/svg">
<path fill-rule="evenodd" clip-rule="evenodd" d="M16.9287 3.01331C17.2553 2.7684 17.6782 2.5237 18.0938 2.776C18.3684 2.93929 18.5396 3.26564 18.6807 3.56995C19.9647 6.28652 20.7432 12.7961 20.7432 13.7907C20.7431 15.7425 20.5205 17.3089 19.2217 18.7858L19.2295 18.7926C17.9678 20.225 15.1476 20.938 11.9043 20.9381C8.66082 20.9381 6.51567 20.1432 5.2168 19.0299C3.58403 17.6346 3.24222 16.0394 3.24219 13.7907C3.24219 12.8851 3.9103 6.38294 5.23145 3.56995C5.37241 3.26577 5.54296 2.93933 5.81738 2.776C6.23302 2.52365 6.65682 2.76838 6.9834 3.01331C7.91849 3.7335 8.83852 6.14561 9.49902 7.45178C10.2858 7.28107 11.1545 7.19202 11.9932 7.19202C12.8318 7.19204 13.6481 7.27387 14.4199 7.43714C15.0805 6.13826 16.0009 3.72583 16.9287 3.01331ZM11.8213 13.6364C11.78 13.6403 11.7384 13.6481 11.6973 13.6608C11.4409 13.7383 11.2699 13.9608 11.2471 14.2076C11.0021 14.6158 10.2933 14.5182 10.25 14.5182C9.90426 14.4554 9.59039 14.6911 9.53516 15.0367C9.48012 15.3827 9.70775 15.7053 10.0537 15.7604C10.1716 15.784 10.3057 15.7916 10.4551 15.7916H10.4629C10.9075 15.7916 11.4578 15.6864 11.8916 15.358C12.3259 15.6866 12.8795 15.7916 13.3242 15.7916H13.332C13.4814 15.7916 13.6155 15.7761 13.7334 15.7604C14.0715 15.7053 14.307 15.3905 14.252 15.0446C14.1967 14.6989 13.875 14.4633 13.5371 14.5182C13.5008 14.5254 12.7754 14.6256 12.5342 14.2018C12.5073 13.9548 12.3393 13.738 12.0898 13.6608C12.0476 13.648 12.0051 13.6401 11.9629 13.6364H11.8213ZM8.86621 11.6725C8.3019 11.6726 7.84492 12.1297 7.84473 12.694C7.84473 13.2584 8.30177 13.7163 8.86621 13.7164C9.43073 13.7164 9.88867 13.2585 9.88867 12.694C9.88847 12.1296 9.43061 11.6725 8.86621 11.6725ZM14.7246 11.6012C14.1601 11.6012 13.7021 12.0591 13.7021 12.6237C13.7023 13.188 14.1602 13.6451 14.7246 13.6451C15.2888 13.6449 15.7459 13.1879 15.7461 12.6237C15.7461 12.0593 15.2889 11.6014 14.7246 11.6012Z" fill="#727272" fill-opacity="0.4"/>
</svg>
