<svg width="68" height="16" viewBox="0 0 68 16" fill="none" xmlns="http://www.w3.org/2000/svg">
<path d="M24.7657 10.2773C26.1514 10.2881 26.9248 10.5674 26.9356 11.1045C26.9248 11.6416 26.1514 11.9316 24.7657 11.9316C23.3477 11.9316 22.585 11.6416 22.5957 11.1045C22.585 10.5674 23.3477 10.2881 24.7657 10.2773Z" fill="#727272" fill-opacity="0.4"/>
<path d="M17.7403 11.7705H13.6905V10.7607H17.7403V11.7705Z" fill="#727272" fill-opacity="0.4"/>
<path d="M57.0996 10.6963H54.7149V8.67676C55.0801 8.75195 55.4776 8.79492 55.8965 8.79492C56.3262 8.79492 56.729 8.75195 57.0996 8.66602V10.6963Z" fill="#727272" fill-opacity="0.4"/>
<path d="M55.8965 4.61621C57.3467 4.61622 58.3457 5.22852 58.3457 6.23828C58.3457 7.2373 57.3467 7.86035 55.8965 7.86035C54.4463 7.86035 53.458 7.2373 53.4688 6.23828C53.458 5.22852 54.4463 4.61621 55.8965 4.61621Z" fill="#727272" fill-opacity="0.4"/>
<path d="M35.3145 7.20508C36.0557 7.20509 36.6035 7.72071 36.6143 8.51562C36.6035 9.31054 36.0557 9.81542 35.3145 9.80469C34.5518 9.81543 34.0039 9.31055 34.0039 8.51562C34.0039 7.7207 34.5518 7.20508 35.3145 7.20508Z" fill="#727272" fill-opacity="0.4"/>
<path fill-rule="evenodd" clip-rule="evenodd" d="M64 0C66.2092 1.18542e-05 68 1.79087 68 4V12C68 14.2091 66.2092 16 64 16H10C7.79089 16 6.00003 14.2091 6.00003 12V10.5L1.10745 8.46191C0.697297 8.29094 0.697297 7.70906 1.10745 7.53809L6.00003 5.5V4C6.00003 1.79086 7.79089 0 10 0H64ZM38.8916 12.8555H40.0733V8H41.5664V7.01172H40.0733V3.14453H38.8916V12.8555ZM49.2041 12.8555H50.3535V3.14453H49.2041V12.8555ZM20.3506 8.56934H24.1748V9.375C22.4131 9.48779 21.3819 10.0947 21.3819 11.1045C21.3819 12.2217 22.6494 12.8447 24.7657 12.8447C26.8604 12.8447 28.1172 12.2217 28.128 11.1045C28.1172 10.0947 27.0967 9.49317 25.3565 9.375V8.56934H29.2022V7.60254H20.3506V8.56934ZM12.5088 12.7373H18.9326V8.83789H17.7403V9.83691H13.6905V8.83789H12.5088V12.7373ZM47.2061 6.48535H45.8203V7.47363H47.2061V12.3828H48.334V3.31641H47.2061V6.48535ZM62.2666 10.3203C61.8047 10.3203 61.4287 10.6963 61.4287 11.1475C61.4287 11.6094 61.8047 11.9854 62.2666 11.9854C62.7071 11.9853 63.0938 11.6094 63.0938 11.1475C63.0938 10.6963 62.7071 10.3203 62.2666 10.3203ZM55.8965 3.6709C53.8125 3.6709 52.2871 4.69141 52.2979 6.23828C52.2925 7.10303 52.7598 7.7959 53.5332 8.23633V10.6963H51.4815V11.6738H60.3545V10.6963H58.3135V8.21484C59.0654 7.76904 59.5166 7.08691 59.5166 6.23828C59.5166 4.69141 57.9912 3.67091 55.8965 3.6709ZM43.8545 5.74414C43.8545 7.39843 43.2207 9.10644 41.8135 9.96582L42.5547 10.8574C43.4678 10.2988 44.0909 9.30517 44.4453 8.12891C44.7622 9.19775 45.3316 10.1055 46.2071 10.6318L46.8623 9.71875C45.5518 8.8916 45.0039 7.25879 45.0039 5.69043V4.00391H43.8545V5.74414ZM35.3145 6.22754C33.8965 6.22754 32.8545 7.17285 32.8653 8.51562C32.8545 9.8584 33.8965 10.793 35.3145 10.793C36.711 10.793 37.753 9.85839 37.753 8.51562C37.753 7.17286 36.711 6.22755 35.3145 6.22754ZM61.6543 9.61133H62.8682L62.9864 4.12207H61.5254L61.6543 9.61133ZM11.2305 4.68066H13.3252C13.2984 5.88378 12.4605 7.04931 10.9082 7.50586L11.5098 8.44043C12.6699 8.07519 13.5025 7.31249 13.9375 6.3457C14.378 7.24267 15.189 7.94629 16.3116 8.2793L16.9131 7.34473C15.3824 6.90967 14.5445 5.81934 14.5283 4.68066H16.5694V3.72461H11.2305V4.68066ZM17.7295 8.4082H18.9326V3.14453H17.7295V8.4082ZM21.1563 4.53027H23.9278C23.7237 5.31982 22.5635 6.05029 20.7803 6.2168L21.1885 7.16211C22.9502 6.98486 24.2393 6.27588 24.7657 5.29297C25.292 6.28125 26.6026 6.98486 28.3643 7.16211L28.7832 6.2168C26.9624 6.05029 25.8023 5.33056 25.6143 4.53027H28.4073V3.57422H21.1563V4.53027ZM34.7129 4.6377H32.4141V5.59375H38.1397V4.6377H35.9053V3.28418H34.7129V4.6377Z" fill="#727272" fill-opacity="0.4"/>
</svg>
