<svg width="24" height="37" viewBox="0 0 24 37" fill="none" xmlns="http://www.w3.org/2000/svg">
<g clip-path="url(#clip0_31_434)">
<path d="M8 18.75C8 18.1977 7.55228 17.75 7 17.75C6.44772 17.75 6 18.1977 6 18.75C6 19.3023 6.44772 19.75 7 19.75C7.55228 19.75 8 19.3023 8 18.75Z" fill="#777777"/>
<path d="M8 14.75C8 14.1977 7.55228 13.75 7 13.75C6.44772 13.75 6 14.1977 6 14.75C6 15.3023 6.44772 15.75 7 15.75C7.55228 15.75 8 15.3023 8 14.75Z" fill="#777777"/>
<path d="M8 10.75C8 10.1977 7.55228 9.75 7 9.75C6.44772 9.75 6 10.1977 6 10.75C6 11.3023 6.44772 11.75 7 11.75C7.55228 11.75 8 11.3023 8 10.75Z" fill="#777777"/>
<path d="M8 22.75C8 22.1977 7.55228 21.75 7 21.75C6.44772 21.75 6 22.1977 6 22.75C6 23.3023 6.44772 23.75 7 23.75C7.55228 23.75 8 23.3023 8 22.75Z" fill="#777777"/>
<path d="M8 26.75C8 26.1977 7.55228 25.75 7 25.75C6.44772 25.75 6 26.1977 6 26.75C6 27.3023 6.44772 27.75 7 27.75C7.55228 27.75 8 27.3023 8 26.75Z" fill="#777777"/>
<path d="M12 18.75C12 18.1977 11.5523 17.75 11 17.75C10.4477 17.75 10 18.1977 10 18.75C10 19.3023 10.4477 19.75 11 19.75C11.5523 19.75 12 19.3023 12 18.75Z" fill="#777777"/>
<path d="M16 18.75C16 18.1977 15.5523 17.75 15 17.75C14.4477 17.75 14 18.1977 14 18.75C14 19.3023 14.4477 19.75 15 19.75C15.5523 19.75 16 19.3023 16 18.75Z" fill="#777777"/>
<path d="M12 14.75C12 14.1977 11.5523 13.75 11 13.75C10.4477 13.75 10 14.1977 10 14.75C10 15.3023 10.4477 15.75 11 15.75C11.5523 15.75 12 15.3023 12 14.75Z" fill="#777777"/>
<path d="M12 10.75C12 10.1977 11.5523 9.75 11 9.75C10.4477 9.75 10 10.1977 10 10.75C10 11.3023 10.4477 11.75 11 11.75C11.5523 11.75 12 11.3023 12 10.75Z" fill="#777777"/>
<path d="M16 14.75C16 14.1977 15.5523 13.75 15 13.75C14.4477 13.75 14 14.1977 14 14.75C14 15.3023 14.4477 15.75 15 15.75C15.5523 15.75 16 15.3023 16 14.75Z" fill="#777777"/>
<path d="M16 10.75C16 10.1977 15.5523 9.75 15 9.75C14.4477 9.75 14 10.1977 14 10.75C14 11.3023 14.4477 11.75 15 11.75C15.5523 11.75 16 11.3023 16 10.75Z" fill="#777777"/>
<path d="M12 22.75C12 22.1977 11.5523 21.75 11 21.75C10.4477 21.75 10 22.1977 10 22.75C10 23.3023 10.4477 23.75 11 23.75C11.5523 23.75 12 23.3023 12 22.75Z" fill="#777777"/>
<path d="M12 26.75C12 26.1977 11.5523 25.75 11 25.75C10.4477 25.75 10 26.1977 10 26.75C10 27.3023 10.4477 27.75 11 27.75C11.5523 27.75 12 27.3023 12 26.75Z" fill="#777777"/>
<path d="M16 22.75C16 22.1977 15.5523 21.75 15 21.75C14.4477 21.75 14 22.1977 14 22.75C14 23.3023 14.4477 23.75 15 23.75C15.5523 23.75 16 23.3023 16 22.75Z" fill="#777777"/>
<path d="M16 26.75C16 26.1977 15.5523 25.75 15 25.75C14.4477 25.75 14 26.1977 14 26.75C14 27.3023 14.4477 27.75 15 27.75C15.5523 27.75 16 27.3023 16 26.75Z" fill="#777777"/>
</g>
<defs>
<clipPath id="clip0_31_434">
<rect width="24" height="14" fill="white" transform="matrix(0 -1 1 0 4 30.75)"/>
</clipPath>
</defs>
</svg>
