<svg width="16" height="16" viewBox="0 0 16 16" fill="none" xmlns="http://www.w3.org/2000/svg">
<path d="M1.33385 8.19986V9.53319H3.73385L0.867188 12.3999L1.80052 13.3332L4.66719 10.4665V12.8665H6.00052V8.19986H1.33385ZM2.66719 2.19986C2.30052 2.19986 1.98663 2.33041 1.72552 2.59152C1.46441 2.85263 1.33385 3.16652 1.33385 3.53319V6.86652H2.66719V3.53319H8.00052V2.19986H2.66719ZM13.3339 6.86652V11.5332H7.33385V12.8665H13.3339C13.7005 12.8665 14.0144 12.736 14.2755 12.4749C14.5366 12.2137 14.6672 11.8999 14.6672 11.5332V6.86652H13.3339ZM9.33385 2.19986V5.53319H14.6672V2.19986H9.33385Z" fill="#C7C9CB"/>
</svg>
