<svg width="16" height="16" viewBox="0 0 16 16" fill="none" xmlns="http://www.w3.org/2000/svg">
<path fill-rule="evenodd" clip-rule="evenodd" d="M6.00915 2.50834C6.22789 2.28953 6.52459 2.16657 6.83398 2.1665H9.16732C9.47674 2.1665 9.77348 2.28942 9.99228 2.50821C10.2111 2.72701 10.334 3.02375 10.334 3.33317V4.49984H12.084C12.2387 4.49984 12.3871 4.5613 12.4965 4.67069C12.6059 4.78009 12.6673 4.92846 12.6673 5.08317C12.6673 5.23788 12.6059 5.38625 12.4965 5.49565C12.3871 5.60505 12.2387 5.6665 12.084 5.6665V12.6665C12.084 12.9759 11.9611 13.2727 11.7423 13.4915C11.5235 13.7103 11.2267 13.8332 10.9173 13.8332H5.08398C4.77457 13.8332 4.47782 13.7103 4.25903 13.4915C4.04023 13.2727 3.91732 12.9759 3.91732 12.6665V5.6665C3.76261 5.6665 3.61424 5.60505 3.50484 5.49565C3.39544 5.38625 3.33398 5.23788 3.33398 5.08317C3.33398 4.92846 3.39544 4.78009 3.50484 4.67069C3.61424 4.5613 3.76261 4.49984 3.91732 4.49984H5.66732V3.33317C5.66738 3.02378 5.79034 2.72708 6.00915 2.50834ZM6.83398 4.49984H9.16732V3.33317H6.83398V4.49984ZM7.41732 6.83317C7.41732 6.67846 7.35586 6.53009 7.24646 6.42069C7.13707 6.3113 6.98869 6.24984 6.83398 6.24984C6.67927 6.24984 6.5309 6.3113 6.42151 6.42069C6.31211 6.53009 6.25065 6.67846 6.25065 6.83317V11.4998C6.25065 11.6545 6.31211 11.8029 6.42151 11.9123C6.5309 12.0217 6.67927 12.0832 6.83398 12.0832C6.98869 12.0832 7.13707 12.0217 7.24646 11.9123C7.35586 11.8029 7.41732 11.6545 7.41732 11.4998V6.83317ZM9.75065 6.83317C9.75065 6.67846 9.68919 6.53009 9.5798 6.42069C9.4704 6.3113 9.32203 6.24984 9.16732 6.24984C9.01261 6.24984 8.86423 6.3113 8.75484 6.42069C8.64544 6.53009 8.58398 6.67846 8.58398 6.83317V11.4998C8.58398 11.6545 8.64544 11.8029 8.75484 11.9123C8.86423 12.0217 9.01261 12.0832 9.16732 12.0832C9.32203 12.0832 9.4704 12.0217 9.5798 11.9123C9.68919 11.8029 9.75065 11.6545 9.75065 11.4998V6.83317Z" fill="white"/>
</svg>
