<svg width="16" height="16" viewBox="0 0 16 16" fill="none" xmlns="http://www.w3.org/2000/svg">
<path fill-rule="evenodd" clip-rule="evenodd" d="M5.77989 2.06145C6.29846 1.08618 7.50946 0.715938 8.48473 1.2345C9.46001 1.75307 9.83025 2.96406 9.31168 3.93934C8.79312 4.91462 7.58212 5.28486 6.60685 4.76629C5.63157 4.24773 5.26133 3.03673 5.77989 2.06145ZM11.1149 3.38804C11.6335 2.41276 12.8445 2.04252 13.8198 2.56109C14.795 3.07965 15.1653 4.29065 14.6467 5.26592C14.1281 6.2412 12.9171 6.61144 11.9419 6.09288C10.9666 5.57431 10.5963 4.36332 11.1149 3.38804ZM1.2345 4.92995C1.75307 3.95467 2.96406 3.58443 3.93934 4.103C4.91462 4.62156 5.28486 5.83256 4.76629 6.80784C4.24773 7.78311 3.03673 8.15335 2.06145 7.63479C1.08618 7.11623 0.715938 5.90523 1.2345 4.92995ZM7.67991 6.66372C8.18224 6.51014 8.70991 6.45701 9.23278 6.50735C9.75565 6.5577 10.2635 6.71054 10.7273 6.95715L12.7875 8.05258C13.4204 8.38938 13.912 8.94183 14.1728 9.60966C14.4337 10.2775 14.4467 11.0167 14.2096 11.6933C13.9724 12.3699 13.5008 12.9392 12.8802 13.2981C12.2595 13.657 11.5308 13.7818 10.8261 13.6498L10.8241 13.6494C10.0955 13.5107 9.50536 13.6909 8.98081 14.2107L8.97972 14.2118C8.46956 14.7151 7.79611 15.0191 7.08124 15.0688C6.36637 15.1186 5.6573 14.9108 5.08234 14.4831C4.50738 14.0554 4.10451 13.436 3.94664 12.737C3.78876 12.038 3.88631 11.3056 4.22163 10.6723L5.31761 8.61105C5.56421 8.14725 5.89976 7.73657 6.30508 7.40244C6.71041 7.06832 7.17757 6.8173 7.67991 6.66372Z" fill="#C7C9CB"/>
</svg>
