<svg width="16" height="16" viewBox="0 0 16 16" fill="none" xmlns="http://www.w3.org/2000/svg">
<path d="M1.33385 8.19992V9.53325H3.73385L0.867188 12.3999L1.80052 13.3333L4.66719 10.4666V12.8666H6.00052V8.19992H1.33385ZM2.66719 2.19992C2.30052 2.19992 1.98663 2.33047 1.72552 2.59159C1.46441 2.8527 1.33385 3.16658 1.33385 3.53325V6.86658H2.66719V3.53325H8.00052V2.19992H2.66719ZM13.3339 6.86658V11.5333H7.33385V12.8666H13.3339C13.7005 12.8666 14.0144 12.736 14.2755 12.4749C14.5366 12.2138 14.6672 11.8999 14.6672 11.5333V6.86658H13.3339ZM9.33385 2.19992V5.53325H14.6672V2.19992H9.33385Z" fill="#C7C9CB"/>
</svg>
