<svg width="65" height="64" viewBox="0 0 65 64" fill="none" xmlns="http://www.w3.org/2000/svg">
<rect x="2.5" y="2" width="60" height="60" rx="30" fill="#00FF85" fill-opacity="0.2"/>
<rect x="2.5" y="2" width="60" height="60" rx="30" stroke="#00FF85" stroke-width="4"/>
<path d="M23.8998 28.6134C24.6776 27.1505 24.1222 25.334 22.6593 24.5562C21.1964 23.7783 19.3799 24.3337 18.6021 25.7966C17.8242 27.2595 18.3796 29.076 19.8425 29.8538C21.3054 30.6317 23.1219 30.0763 23.8998 28.6134Z" fill="#00FF85"/>
<path d="M34.1269 22.1593C34.9047 20.6964 34.3494 18.8799 32.8865 18.102C31.4235 17.3242 29.6071 17.8796 28.8292 19.3425C28.0514 20.8054 28.6067 22.6219 30.0696 23.3997C31.5325 24.1776 33.349 23.6222 34.1269 22.1593Z" fill="#00FF85"/>
<path d="M46.1307 25.1441C46.9085 23.6812 46.3532 21.8647 44.8903 21.0869C43.4273 20.309 41.6108 20.8644 40.833 22.3273C40.0552 23.7902 40.6105 25.6067 42.0734 26.3845C43.5363 27.1624 45.3528 26.607 46.1307 25.1441Z" fill="#00FF85"/>
<path d="M27.7891 34.0791C28.2514 33.2094 28.8806 32.4394 29.6406 31.8129C30.4006 31.1864 31.2765 30.7158 32.2184 30.4278C33.1603 30.1399 34.1496 30.0402 35.13 30.1346C36.1104 30.229 37.0626 30.5156 37.9322 30.978L42.5677 33.4427C43.6753 34.0321 44.5352 34.9987 44.9917 36.1674C45.4482 37.3361 45.471 38.6297 45.056 39.8138C44.641 40.9979 43.8157 41.9942 42.7295 42.6222C41.6434 43.2503 40.3682 43.4686 39.1349 43.2377C37.0112 42.8333 35.1832 43.3903 33.651 44.9087C32.7582 45.7894 31.5797 46.3214 30.3287 46.4085C29.0776 46.4956 27.8368 46.132 26.8306 45.3835C25.8244 44.635 25.1194 43.551 24.8431 42.3278C24.5668 41.1046 24.7375 39.8228 25.3243 38.7145L27.7891 34.0791Z" fill="#00FF85"/>
<path fill-rule="evenodd" clip-rule="evenodd" d="M32.1822 19.4265C31.4508 19.0375 30.5425 19.3152 30.1536 20.0467C29.7647 20.7781 30.0424 21.6864 30.7738 22.0753C31.5053 22.4642 32.4135 22.1866 32.8024 21.4551C33.1914 20.7236 32.9137 19.8154 32.1822 19.4265ZM27.5048 18.6383C28.6715 16.4439 31.3963 15.6109 33.5906 16.7776C35.785 17.9444 36.6181 20.6691 35.4513 22.8635C34.2845 25.0579 31.5598 25.8909 29.3654 24.7242C27.171 23.5574 26.338 20.8326 27.5048 18.6383ZM44.186 22.4113C43.4546 22.0224 42.5463 22.3 42.1574 23.0315C41.7685 23.763 42.0462 24.6712 42.7776 25.0601C43.5091 25.4491 44.4173 25.1714 44.8062 24.4399C45.1952 23.7085 44.9175 22.8002 44.186 22.4113ZM39.5086 21.6231C40.6753 19.4287 43.4001 18.5957 45.5944 19.7624C47.7888 20.9292 48.6219 23.654 47.4551 25.8483C46.2883 28.0427 43.5636 28.8757 41.3692 27.709C39.1748 26.5422 38.3418 23.8175 39.5086 21.6231ZM21.9551 25.8806C21.2236 25.4917 20.3154 25.7693 19.9265 26.5008C19.5375 27.2323 19.8152 28.1405 20.5467 28.5294C21.2781 28.9184 22.1864 28.6407 22.5753 27.9092C22.9642 27.1778 22.6866 26.2695 21.9551 25.8806ZM17.2776 25.0924C18.4444 22.898 21.1691 22.065 23.3635 23.2317C25.5579 24.3985 26.3909 27.1233 25.2242 29.3176C24.0574 31.512 21.3326 32.345 19.1383 31.1783C16.9439 30.0115 16.1109 27.2868 17.2776 25.0924ZM34.9862 31.6277C34.2019 31.5522 33.4104 31.6319 32.6569 31.8623C31.9034 32.0927 31.2027 32.4692 30.5947 32.9704C29.9867 33.4715 29.4834 34.0876 29.1135 34.7833L26.65 39.4164C26.6498 39.4167 26.6501 39.4162 26.65 39.4164C26.2312 40.2079 26.1089 41.1239 26.3062 41.9973C26.5036 42.8711 27.0072 43.6453 27.7259 44.18C28.4446 44.7146 29.3309 44.9743 30.2245 44.9121C31.1181 44.8499 31.9599 44.4699 32.5976 43.8409L33.651 44.9087L32.5951 43.8433C34.4786 41.9767 36.8059 41.2681 39.4128 41.7636C40.2931 41.9281 41.2033 41.7721 41.9786 41.3237C42.7545 40.8751 43.344 40.1634 43.6404 39.3177C43.9368 38.4719 43.9205 37.5479 43.5945 36.7131C43.2684 35.8783 42.6542 35.1879 41.863 34.7669L37.228 32.3024C36.5323 31.9325 35.7705 31.7033 34.9862 31.6277ZM31.7798 28.9934C32.91 28.6478 34.0973 28.5283 35.2738 28.6415C36.4502 28.7548 37.5928 29.0987 38.6364 29.6536L43.2719 32.1183C44.696 32.8761 45.802 34.1191 46.3889 35.6217C46.9758 37.1244 47.0051 38.7875 46.4715 40.3099C45.938 41.8323 44.8769 43.1133 43.4804 43.9208C42.0839 44.7283 40.4443 45.009 38.8587 44.712L38.8543 44.7112C37.2148 44.399 35.887 44.8046 34.7068 45.9742L34.7044 45.9766C33.5565 47.1089 32.0413 47.7929 30.4328 47.9049C28.8243 48.0168 27.2289 47.5493 25.9353 46.587C24.6416 45.6246 23.7352 44.231 23.3799 42.6583C23.0247 41.0855 23.2442 39.4376 23.9987 38.0127L26.4646 33.3749C27.0195 32.3313 27.7745 31.4073 28.6864 30.6555C29.5984 29.9037 30.6495 29.3389 31.7798 28.9934Z" fill="#00FF85"/>
</svg>
