<svg width="16" height="16" viewBox="0 0 16 16" fill="none" xmlns="http://www.w3.org/2000/svg">
<g opacity="0.2">
<path d="M4.17767 6.49485C4.52338 5.84467 4.27655 5.03733 3.62637 4.69163C2.97618 4.34592 2.16885 4.59274 1.82314 5.24293C1.47743 5.89311 1.72426 6.70044 2.37444 7.04615C3.02463 7.39186 3.83196 7.14504 4.17767 6.49485Z" fill="white"/>
<path d="M8.72306 3.62635C9.06877 2.97617 8.82195 2.16884 8.17176 1.82313C7.52158 1.47742 6.71425 1.72425 6.36854 2.37443C6.02283 3.02461 6.26965 3.83195 6.91984 4.17766C7.57002 4.52336 8.37735 4.27654 8.72306 3.62635Z" fill="white"/>
<path d="M14.0581 4.95294C14.4038 4.30275 14.157 3.49542 13.5068 3.14971C12.8566 2.804 12.0493 3.05083 11.7036 3.70101C11.3578 4.3512 11.6047 5.15853 12.2549 5.50424C12.905 5.84995 13.7124 5.60312 14.0581 4.95294Z" fill="white"/>
<path d="M5.90625 8.92403C6.11175 8.53753 6.39137 8.19529 6.72914 7.91685C7.06691 7.63841 7.45622 7.42923 7.87483 7.30125C8.29345 7.17327 8.73317 7.12899 9.16889 7.17095C9.60462 7.2129 10.0278 7.34027 10.4143 7.54577L12.4745 8.64121C12.9668 8.90316 13.349 9.33276 13.5519 9.85219C13.7547 10.3716 13.7649 10.9465 13.5804 11.4728C13.396 11.999 13.0292 12.4419 12.5465 12.721C12.0637 13.0001 11.497 13.0972 10.9489 12.9945C10.005 12.8148 9.19253 13.0624 8.51155 13.7372C8.11476 14.1286 7.59097 14.3651 7.03496 14.4038C6.47895 14.4425 5.92745 14.2809 5.48026 13.9482C5.03307 13.6155 4.71973 13.1338 4.59693 12.5901C4.47414 12.0465 4.55001 11.4768 4.81081 10.9842L5.90625 8.92403Z" fill="white"/>
<path fill-rule="evenodd" clip-rule="evenodd" d="M7.85877 2.41177C7.53368 2.23891 7.13001 2.36232 6.95716 2.68742C6.7843 3.01251 6.90772 3.41617 7.23281 3.58903C7.5579 3.76188 7.96157 3.63847 8.13442 3.31338C8.30728 2.98829 8.18386 2.58462 7.85877 2.41177ZM5.77989 2.06145C6.29846 1.08618 7.50946 0.715938 8.48473 1.2345C9.46001 1.75307 9.83025 2.96406 9.31168 3.93934C8.79312 4.91462 7.58212 5.28486 6.60685 4.76629C5.63157 4.24773 5.26133 3.03673 5.77989 2.06145ZM13.1938 3.73835C12.8687 3.56549 12.465 3.68891 12.2922 4.014C12.1193 4.33909 12.2427 4.74276 12.5678 4.91561C12.8929 5.08847 13.2966 4.96505 13.4694 4.63996C13.6423 4.31487 13.5189 3.9112 13.1938 3.73835ZM11.1149 3.38804C11.6335 2.41276 12.8445 2.04252 13.8198 2.56109C14.795 3.07965 15.1653 4.29065 14.6467 5.26592C14.1281 6.2412 12.9171 6.61144 11.9419 6.09288C10.9666 5.57431 10.5963 4.36332 11.1149 3.38804ZM3.31338 5.28026C2.98829 5.10741 2.58462 5.23082 2.41177 5.55591C2.23891 5.881 2.36232 6.28467 2.68742 6.45752C3.01251 6.63038 3.41617 6.50697 3.58903 6.18187C3.76188 5.85678 3.63847 5.45312 3.31338 5.28026ZM1.2345 4.92995C1.75307 3.95467 2.96406 3.58443 3.93934 4.103C4.91462 4.62156 5.28486 5.83256 4.76629 6.80784C4.24773 7.78311 3.03673 8.15335 2.06145 7.63479C1.08618 7.11622 0.715938 5.90523 1.2345 4.92995ZM9.10498 7.83455C8.75641 7.80098 8.40463 7.83641 8.06974 7.93879C7.73485 8.04118 7.4234 8.20852 7.15319 8.43127C6.88297 8.65402 6.65927 8.92781 6.49487 9.23701L5.39998 11.2962C5.39991 11.2963 5.40005 11.2961 5.39998 11.2962C5.21386 11.6479 5.15953 12.0551 5.24721 12.4433C5.33492 12.8316 5.55873 13.1757 5.87816 13.4133C6.19758 13.6509 6.59151 13.7664 6.98866 13.7387C7.38581 13.7111 7.75995 13.5422 8.04337 13.2626L8.51155 13.7372L8.04227 13.2637C8.8794 12.4341 9.91373 12.1191 11.0723 12.3394C11.4636 12.4125 11.8681 12.3431 12.2127 12.1439C12.5575 11.9445 12.8195 11.6282 12.9513 11.2523C13.083 10.8764 13.0758 10.4658 12.9309 10.0947C12.786 9.72371 12.513 9.41685 12.1613 9.22974L10.1013 8.13441C9.79212 7.97001 9.45356 7.86811 9.10498 7.83455ZM7.67991 6.66372C8.18224 6.51014 8.70991 6.45701 9.23278 6.50735C9.75565 6.5577 10.2635 6.71054 10.7273 6.95715L12.7875 8.05258C13.4204 8.38938 13.912 8.94182 14.1728 9.60966C14.4337 10.2775 14.4467 11.0167 14.2096 11.6933C13.9724 12.3699 13.5008 12.9392 12.8802 13.2981C12.2595 13.657 11.5308 13.7818 10.8261 13.6498L10.8241 13.6494C10.0955 13.5107 9.50536 13.6909 8.98081 14.2107L8.97972 14.2118C8.46956 14.7151 7.79611 15.0191 7.08124 15.0688C6.36637 15.1186 5.6573 14.9108 5.08234 14.4831C4.50738 14.0554 4.10451 13.436 3.94664 12.737C3.78876 12.038 3.88631 11.3056 4.22163 10.6723L5.31761 8.61105C5.56421 8.14725 5.89976 7.73656 6.30508 7.40244C6.71041 7.06832 7.17757 6.8173 7.67991 6.66372Z" fill="white"/>
</g>
</svg>
