<svg width="54" height="54" viewBox="0 0 54 54" fill="currentColor" xmlns="http://www.w3.org/2000/svg">
<circle cx="27" cy="27" r="25" stroke="#D9D9D9" stroke-width="4"/>
<path d="M21.2665 24.7423C21.7851 23.767 21.4148 22.556 20.4396 22.0374C19.4643 21.5189 18.2533 21.8891 17.7347 22.8644C17.2162 23.8397 17.5864 25.0507 18.5617 25.5692C19.5369 26.0878 20.7479 25.7176 21.2665 24.7423Z" fill="#D9D9D9"/>
<path d="M28.0846 20.4395C28.6032 19.4643 28.2329 18.2533 27.2576 17.7347C26.2824 17.2161 25.0714 17.5864 24.5528 18.5616C24.0342 19.5369 24.4045 20.7479 25.3798 21.2665C26.355 21.785 27.566 21.4148 28.0846 20.4395Z" fill="#D9D9D9"/>
<path d="M36.0871 22.4294C36.6057 21.4541 36.2354 20.2431 35.2602 19.7246C34.2849 19.206 33.0739 19.5762 32.5553 20.5515C32.0368 21.5268 32.407 22.7378 33.3823 23.2564C34.3576 23.7749 35.5686 23.4047 36.0871 22.4294Z" fill="#D9D9D9"/>
<path d="M23.8594 28.386C24.1676 27.8063 24.5871 27.2929 25.0937 26.8753C25.6004 26.4576 26.1843 26.1439 26.8122 25.9519C27.4402 25.7599 28.0997 25.6935 28.7533 25.7564C29.4069 25.8194 30.0417 26.0104 30.6215 26.3187L33.7118 27.9618C34.4502 28.3547 35.0235 28.9991 35.3278 29.7783C35.6321 30.5574 35.6473 31.4198 35.3707 32.2092C35.094 32.9986 34.5438 33.6628 33.8197 34.0815C33.0956 34.5002 32.2454 34.6458 31.4233 34.4918C30.0074 34.2222 28.7888 34.5935 27.7673 35.6058C27.1721 36.1929 26.3865 36.5476 25.5524 36.6057C24.7184 36.6637 23.8912 36.4213 23.2204 35.9223C22.5496 35.4233 22.0796 34.7007 21.8954 33.8852C21.7112 33.0697 21.825 32.2152 22.2162 31.4764L23.8594 28.386Z" fill="#D9D9D9"/>
<path fill-rule="evenodd" clip-rule="evenodd" d="M26.7882 18.6176C26.3005 18.3584 25.695 18.5435 25.4357 19.0311C25.1765 19.5188 25.3616 20.1243 25.8492 20.3835C26.3369 20.6428 26.9423 20.4577 27.2016 19.9701C27.4609 19.4824 27.2758 18.8769 26.7882 18.6176ZM23.6698 18.0922C24.4477 16.6293 26.2642 16.0739 27.7271 16.8518C29.19 17.6296 29.7454 19.4461 28.9675 20.909C28.1897 22.3719 26.3732 22.9273 24.9103 22.1494C23.4474 21.3716 22.892 19.5551 23.6698 18.0922ZM34.7907 20.6075C34.303 20.3482 33.6975 20.5334 33.4383 21.021C33.179 21.5086 33.3641 22.1141 33.8517 22.3734C34.3394 22.6327 34.9449 22.4476 35.2042 21.9599C35.4634 21.4723 35.2783 20.8668 34.7907 20.6075ZM31.6724 20.0821C32.4502 18.6191 34.2667 18.0638 35.7296 18.8416C37.1925 19.6195 37.7479 21.436 36.9701 22.8989C36.1922 24.3618 34.3757 24.9172 32.9128 24.1393C31.4499 23.3615 30.8945 21.545 31.6724 20.0821ZM19.9701 22.9204C19.4824 22.6611 18.8769 22.8462 18.6176 23.3339C18.3584 23.8215 18.5435 24.427 19.0311 24.6863C19.5188 24.9456 20.1243 24.7605 20.3835 24.2728C20.6428 23.7852 20.4577 23.1797 19.9701 22.9204ZM16.8518 22.3949C17.6296 20.932 19.4461 20.3767 20.909 21.1545C22.3719 21.9323 22.9273 23.7488 22.1494 25.2118C21.3716 26.6747 19.5551 27.23 18.0922 26.4522C16.6293 25.6743 16.0739 23.8578 16.8518 22.3949ZM28.6575 26.7518C28.1346 26.7015 27.6069 26.7546 27.1046 26.9082C26.6023 27.0618 26.1351 27.3128 25.7298 27.6469C25.3245 27.981 24.9889 28.3917 24.7423 28.8555L23.1 31.9443C23.0999 31.9445 23.1001 31.9441 23.1 31.9443C22.8208 32.4719 22.7393 33.0826 22.8708 33.6649C23.0024 34.2474 23.3381 34.7635 23.8172 35.12C24.2964 35.4764 24.8873 35.6495 25.483 35.6081C26.0787 35.5666 26.6399 35.3133 27.0651 34.8939L27.7673 35.6058L27.0634 34.8955C28.3191 33.6511 29.8706 33.1787 31.6085 33.5091C32.1954 33.6187 32.8022 33.5147 33.3191 33.2158C33.8363 32.9167 34.2293 32.4423 34.4269 31.8785C34.6245 31.3146 34.6137 30.6986 34.3963 30.1421C34.1789 29.5856 33.7695 29.1253 33.242 28.8446L30.152 27.2016C29.6882 26.955 29.1803 26.8022 28.6575 26.7518ZM26.5199 24.9956C27.2734 24.7652 28.0649 24.6855 28.8492 24.761C29.6335 24.8365 30.3952 25.0658 31.0909 25.4357L34.1812 27.0789C35.1306 27.5841 35.868 28.4127 36.2593 29.4145C36.6505 30.4163 36.6701 31.525 36.3144 32.5399C35.9587 33.5549 35.2513 34.4088 34.3203 34.9472C33.3893 35.4855 32.2962 35.6727 31.2392 35.4747L31.2362 35.4741C30.1432 35.266 29.258 35.5364 28.4712 36.3161L28.4696 36.3177C27.7043 37.0726 26.6942 37.5286 25.6219 37.6033C24.5496 37.6779 23.486 37.3662 22.6235 36.7247C21.7611 36.0831 21.1568 35.154 20.92 34.1055C20.6831 33.057 20.8295 31.9584 21.3324 31.0084L22.9764 27.9166C23.3463 27.2209 23.8496 26.6048 24.4576 26.1037C25.0656 25.6025 25.7664 25.2259 26.5199 24.9956Z" fill="#D9D9D9"/>
</svg>
